<?xml version="1.0" encoding="utf-8"?>
<?xml-stylesheet type="text/xsl" href="rss1.xsl"?>
<rss version="2.0" xmlns:atom="http://www.w3.org/2005/Atom" xmlns:content="http://purl.org/rss/1.0/modules/content/" xmlns:dc="http://purl.org/dc/elements/1.1/" xmlns:media="http://search.yahoo.com/mrss/">
<channel>
 <title>Getty</title>
 <link>http://www.gettyimg.com/</link>
 <atom:link href="http://www.gettyimg.com/" rel="self" type="application/rss+xml" />

 
                <item>
                <title><![CDATA[【Requests】[REQ VID] - Travis Scott - Circus Maximus Movie]]></title>
                <link><![CDATA[https://sharemania.us/threads/travis-scott-circus-maximus-movie.225951/]]></link>
                <description><![CDATA[<article>
<blockquote class="messageText SelectQuoteContainer ugc baseHtml">
Can someone upload movie that is available on Apple Music <a href="https://music.apple.com/us/station/travis-scotts-circus-maximus/ra.1701188418" target="_blank" class="externalLink" rel="nofollow">https://music.apple.com/us/station/travis-scotts-circus-maximus/ra.1701188418</a><br>
<br>
Thank you.
<div class="messageTextEndMarker">&nbsp;</div>
</blockquote>
</article>]]></description>
                <author><![CDATA[Topico]]></author>
                </item>

                
                <item>
                <title><![CDATA[【Music Videos】Mandy Capristo - The Way I Like It (4K AI)]]></title>
                <link><![CDATA[https://sharemania.us/threads/mandy-capristo-the-way-i-like-it-4k-ai.225953/]]></link>
                <description><![CDATA[<article>
<blockquote class="messageText SelectQuoteContainer ugc baseHtml">
<img src="https://i.imgur.com/8Qr1vgK.jpg" class="bbCodeImage LbImage" alt="[​IMG]" data-url="https://i.imgur.com/8Qr1vgK.jpg" style=""><br>
<br>
<div class="ToggleTriggerAnchor bbCodeSpoilerContainer">
<button type="button" class="button bbCodeSpoilerButton ToggleTrigger Tooltip JsOnly" data-target="> .SpoilerTarget"><span>Spoiler: <span class="SpoilerTitle">MediaInfo</span></span></button>
<div class="SpoilerTarget bbCodeSpoilerText">General<br>
Complete name : The Way I Like It.mp4<br>
Format : MPEG-4<br>
Format profile : Base Media<br>
Codec ID : isom (isom/iso2/avc1/mp41)<br>
File size : 518 MiB<br>
Duration : 3 min 30 s<br>
Overall bit rate mode : Variable<br>
Overall bit rate : 20.7 Mb/s<br>
Frame rate : 25.000 FPS<br>
Writing application : Lavf60.4.101<br>
<br>
Video<br>
ID : 1<br>
Format : AVC<br>
Format/Info : Advanced Video Codec<br>
Format profile : High@L5.1<br>
Format settings : CABAC / 1 Ref Frames<br>
Format settings, CABAC : Yes<br>
Format settings, Reference frames : 1 frame<br>
Codec ID : avc1<br>
Codec ID/Info : Advanced Video Coding<br>
Duration : 3 min 30 s<br>
Bit rate : 19.7 Mb/s<br>
Width : 3 840 pixels<br>
Height : 2 160 pixels<br>
Display aspect ratio : 16:9<br>
Frame rate mode : Constant<br>
Frame rate : 25.000 FPS<br>
Standard : Component<br>
Color space : YUV<br>
Chroma subsampling : 4:2:0<br>
Bit depth : 8 bits<br>
Scan type : Progressive<br>
Bits/(Pixel*Frame) : 0.095<br>
Stream size : 493 MiB (95%)<br>
Color range : Limited<br>
Matrix coefficients : BT.709<br>
Codec configuration box : avcC<br>
<br>
Audio<br>
ID : 2<br>
Format : FLAC<br>
Format/Info : Free Lossless Audio Codec<br>
Codec ID : fLaC<br>
Duration : 3 min 30 s<br>
Duration_LastFrame : -46 ms<br>
Bit rate mode : Variable<br>
Bit rate : 1 001 kb/s<br>
Channel(s) : 2 channels<br>
Channel layout : L R<br>
Sampling rate : 44.1 kHz<br>
Bit depth : 16 bits<br>
Compression mode : Lossless<br>
Stream size : 25.1 MiB (5%)<br>
Default : Yes<br>
Alternate group : 1<br>
MD5 of the unencoded content : 3E2F315367D79C9454BA2607EA998F2B</div>
</div><br>
<div class="bbCodeBlock bbCodeVfcHH HiddenContent">
<div class="attribution type">Hidden Content:</div>
<blockquote>You must reply before you can see the hidden data contained here.</blockquote>
</div>
<div class="messageTextEndMarker">&nbsp;</div>
</blockquote>
</article>]]></description>
                <author><![CDATA[andreasjk]]></author>
                </item>

                
                <item>
                <title><![CDATA[【Requests】[REQ AUD] - Spice Girls - Step to Me (From Spiceworld) Japan edition]]></title>
                <link><![CDATA[https://sharemania.us/threads/spice-girls-step-to-me-from-spiceworld-japan-edition.225952/]]></link>
                <description><![CDATA[<article>
<blockquote class="messageText SelectQuoteContainer ugc baseHtml">
Hi, I'm looking for "Step to Me" by Spice Girls from the Japanese "Spiceworld" edition.<br>
<br>
This version it's different from the 7 mix... If someone would share it on flac or wav, I would be grateful.
<div class="messageTextEndMarker">&nbsp;</div>
</blockquote>
</article>]]></description>
                <author><![CDATA[antoniopervoi]]></author>
                </item>

                </channel></rss>